<svg xmlns="http://www.w3.org/2000/svg" width="16" height="16"><g><title>background</title><rect id="canvas_background" width="18" height="18" x="-1" y="-1" fill="none"/></g><g><title>Layer 1</title><path id="svg_1" fill="#FFF" d="m1,1l14,0l0,14l-14,0l0,-14z"/><path id="svg_2" fill="#999" d="m1,1l0,14l14,0l0,-14l-14,0zm1,1l12,0l0,12l-12,0l0,-12z"/><path id="svg_3" fill="#999" stroke="#999" d="m3.312498,3.312498l9.437504,0l0,2.296198l-9.437504,0l0,-2.296198z"/><path id="svg_5" fill="#999" stroke="#999" d="m3.374997,7.568743l2.459575,0l0,5.071939l-2.459575,0l0,-5.071939z"/><path id="svg_6" fill="#b2b2b2" stroke="#b2b2b2" d="m7.740987,7.568745l5.014713,0l0,5.071937l-5.014713,0l0,-5.071937z"/><line id="svg_11" x1="-12.469" x2="-12.344" y1="4.427" y2="4.365" fill="none" fill-opacity="null" stroke="#999" stroke-linecap="null" stroke-linejoin="null" stroke-width="null"/></g></svg>